<?xml version="1.0" encoding="UTF-8" standalone="no"?>
<!DOCTYPE svg PUBLIC "-//W3C//DTD SVG 1.1//EN"
 "http://www.w3.org/Graphics/SVG/1.1/DTD/svg11.dtd">
<!-- Generated by graphviz version 2.47.0 (20210316.0004)
 -->
<!-- Title: dependencies Pages: 1 -->
<svg width="769pt" height="211pt"
 viewBox="0.00 0.00 769.00 211.00" xmlns="http://www.w3.org/2000/svg" xmlns:xlink="http://www.w3.org/1999/xlink">
<g id="graph0" class="graph" transform="scale(1 1) rotate(0) translate(4 207)">
<title>dependencies</title>
<polygon fill="white" stroke="transparent" points="-4,4 -4,-207 765,-207 765,4 -4,4"/>
<text text-anchor="start" x="359.51" y="-42.4" font-family="Times-12" font-weight="bold" font-size="14.00">Legend</text>
<polygon fill="#ffffb3" stroke="transparent" points="146.5,-10 146.5,-30 166.5,-30 166.5,-10 146.5,-10"/>
<text text-anchor="start" x="170.13" y="-15.4" font-family="Times-12" font-size="14.00"> &#160;Declarations</text>
<polygon fill="#8dd3c7" stroke="transparent" points="259.5,-10 259.5,-30 279.5,-30 279.5,-10 259.5,-10"/>
<text text-anchor="start" x="283.23" y="-15.4" font-family="Times-12" font-size="14.00"> &#160;Module</text>
<polygon fill="#80b1d3" stroke="transparent" points="345.5,-10 345.5,-30 365.5,-30 365.5,-10 345.5,-10"/>
<text text-anchor="start" x="369.28" y="-15.4" font-family="Times-12" font-size="14.00"> &#160;Bootstrap</text>
<polygon fill="#fdb462" stroke="transparent" points="442.5,-10 442.5,-30 462.5,-30 462.5,-10 442.5,-10"/>
<text text-anchor="start" x="466.17" y="-15.4" font-family="Times-12" font-size="14.00"> &#160;Providers</text>
<polygon fill="#fb8072" stroke="transparent" points="538.5,-10 538.5,-30 558.5,-30 558.5,-10 538.5,-10"/>
<text text-anchor="start" x="562.23" y="-15.4" font-family="Times-12" font-size="14.00"> &#160;Exports</text>
<g id="clust1" class="cluster">
<title>cluster_AppModule</title>
<polygon fill="none" stroke="black" stroke-dasharray="1,5" points="8,-70 8,-195 753,-195 753,-70 8,-70"/>
</g>
<g id="clust3" class="cluster">
<title>cluster_AppModule_imports</title>
<polygon fill="none" stroke="black" points="633,-78 633,-130 745,-130 745,-78 633,-78"/>
</g>
<g id="clust6" class="cluster">
<title>cluster_AppModule_providers</title>
<polygon fill="none" stroke="black" points="16,-78 16,-130 625,-130 625,-78 16,-78"/>
</g>
<!-- HealthModule -->
<g id="node1" class="node">
<title>HealthModule</title>
<polygon fill="#8dd3c7" stroke="black" points="737.37,-122 734.37,-126 713.37,-126 710.37,-122 640.63,-122 640.63,-86 737.37,-86 737.37,-122"/>
<text text-anchor="middle" x="689" y="-99.8" font-family="Times,serif" font-size="14.00">HealthModule</text>
</g>
<!-- AppModule -->
<g id="node2" class="node">
<title>AppModule</title>
<polygon fill="#8dd3c7" stroke="black" points="437.66,-187 434.66,-191 413.66,-191 410.66,-187 354.34,-187 354.34,-151 437.66,-151 437.66,-187"/>
<text text-anchor="middle" x="396" y="-164.8" font-family="Times,serif" font-size="14.00">AppModule</text>
</g>
<!-- HealthModule&#45;&gt;AppModule -->
<g id="edge1" class="edge">
<title>HealthModule&#45;&gt;AppModule</title>
<path fill="none" stroke="black" d="M689,-122.28C689,-143.32 689,-175 689,-175 689,-175 447.67,-175 447.67,-175"/>
<polygon fill="black" stroke="black" points="447.67,-171.5 437.67,-175 447.67,-178.5 447.67,-171.5"/>
</g>
<!-- AppService -->
<g id="node3" class="node">
<title>AppService</title>
<ellipse fill="#fdb462" stroke="black" cx="560" cy="-104" rx="56.74" ry="18"/>
<text text-anchor="middle" x="560" y="-99.8" font-family="Times,serif" font-size="14.00">AppService</text>
</g>
<!-- AppService&#45;&gt;AppModule -->
<g id="edge2" class="edge">
<title>AppService&#45;&gt;AppModule</title>
<path fill="none" stroke="black" d="M560,-122.02C560,-139.37 560,-163 560,-163 560,-163 447.81,-163 447.81,-163"/>
<polygon fill="black" stroke="black" points="447.81,-159.5 437.81,-163 447.81,-166.5 447.81,-159.5"/>
</g>
<!-- CombustivelService -->
<g id="node4" class="node">
<title>CombustivelService</title>
<ellipse fill="#fdb462" stroke="black" cx="396" cy="-104" rx="89.2" ry="18"/>
<text text-anchor="middle" x="396" y="-99.8" font-family="Times,serif" font-size="14.00">CombustivelService</text>
</g>
<!-- CombustivelService&#45;&gt;AppModule -->
<g id="edge3" class="edge">
<title>CombustivelService&#45;&gt;AppModule</title>
<path fill="none" stroke="black" d="M396,-122.11C396,-122.11 396,-140.99 396,-140.99"/>
<polygon fill="black" stroke="black" points="392.5,-140.99 396,-150.99 399.5,-140.99 392.5,-140.99"/>
</g>
<!-- PostoService -->
<g id="node5" class="node">
<title>PostoService</title>
<ellipse fill="#fdb462" stroke="black" cx="227" cy="-104" rx="61.41" ry="18"/>
<text text-anchor="middle" x="227" y="-99.8" font-family="Times,serif" font-size="14.00">PostoService</text>
</g>
<!-- PostoService&#45;&gt;AppModule -->
<g id="edge4" class="edge">
<title>PostoService&#45;&gt;AppModule</title>
<path fill="none" stroke="black" d="M227,-122.02C227,-139.37 227,-163 227,-163 227,-163 344.22,-163 344.22,-163"/>
<polygon fill="black" stroke="black" points="344.22,-166.5 354.22,-163 344.22,-159.5 344.22,-166.5"/>
</g>
<!-- PrecoService -->
<g id="node6" class="node">
<title>PrecoService</title>
<ellipse fill="#fdb462" stroke="black" cx="86" cy="-104" rx="61.95" ry="18"/>
<text text-anchor="middle" x="86" y="-99.8" font-family="Times,serif" font-size="14.00">PrecoService</text>
</g>
<!-- PrecoService&#45;&gt;AppModule -->
<g id="edge5" class="edge">
<title>PrecoService&#45;&gt;AppModule</title>
<path fill="none" stroke="black" d="M86,-122.28C86,-143.32 86,-175 86,-175 86,-175 344.19,-175 344.19,-175"/>
<polygon fill="black" stroke="black" points="344.19,-178.5 354.19,-175 344.19,-171.5 344.19,-178.5"/>
</g>
</g>
</svg>
