<?xml version="1.0" encoding="UTF-8" standalone="no"?>
<!DOCTYPE svg PUBLIC "-//W3C//DTD SVG 1.1//EN"
 "http://www.w3.org/Graphics/SVG/1.1/DTD/svg11.dtd">
<!-- Generated by graphviz version 2.47.0 (20210316.0004)
 -->
<!-- Title: dependencies Pages: 1 -->
<svg width="1056pt" height="211pt"
 viewBox="0.00 0.00 1056.00 211.00" xmlns="http://www.w3.org/2000/svg" xmlns:xlink="http://www.w3.org/1999/xlink">
<g id="graph0" class="graph" transform="scale(1 1) rotate(0) translate(4 207)">
<title>dependencies</title>
<polygon fill="white" stroke="transparent" points="-4,4 -4,-207 1052,-207 1052,4 -4,4"/>
<text text-anchor="start" x="503.01" y="-42.4" font-family="Times-12" font-weight="bold" font-size="14.00">Legend</text>
<polygon fill="#ffffb3" stroke="transparent" points="290,-10 290,-30 310,-30 310,-10 290,-10"/>
<text text-anchor="start" x="313.63" y="-15.4" font-family="Times-12" font-size="14.00"> &#160;Declarations</text>
<polygon fill="#8dd3c7" stroke="transparent" points="403,-10 403,-30 423,-30 423,-10 403,-10"/>
<text text-anchor="start" x="426.73" y="-15.4" font-family="Times-12" font-size="14.00"> &#160;Module</text>
<polygon fill="#80b1d3" stroke="transparent" points="489,-10 489,-30 509,-30 509,-10 489,-10"/>
<text text-anchor="start" x="512.78" y="-15.4" font-family="Times-12" font-size="14.00"> &#160;Bootstrap</text>
<polygon fill="#fdb462" stroke="transparent" points="586,-10 586,-30 606,-30 606,-10 586,-10"/>
<text text-anchor="start" x="609.67" y="-15.4" font-family="Times-12" font-size="14.00"> &#160;Providers</text>
<polygon fill="#fb8072" stroke="transparent" points="682,-10 682,-30 702,-30 702,-10 682,-10"/>
<text text-anchor="start" x="705.73" y="-15.4" font-family="Times-12" font-size="14.00"> &#160;Exports</text>
<g id="clust1" class="cluster">
<title>cluster_AppModule</title>
<polygon fill="none" stroke="black" stroke-dasharray="1,5" points="8,-70 8,-195 1040,-195 1040,-70 8,-70"/>
</g>
<g id="clust3" class="cluster">
<title>cluster_AppModule_imports</title>
<polygon fill="none" stroke="black" points="920,-78 920,-130 1032,-130 1032,-78 920,-78"/>
</g>
<g id="clust6" class="cluster">
<title>cluster_AppModule_providers</title>
<polygon fill="none" stroke="black" points="16,-78 16,-130 912,-130 912,-78 16,-78"/>
</g>
<!-- HealthModule -->
<g id="node1" class="node">
<title>HealthModule</title>
<polygon fill="#8dd3c7" stroke="black" points="1024.37,-122 1021.37,-126 1000.37,-126 997.37,-122 927.63,-122 927.63,-86 1024.37,-86 1024.37,-122"/>
<text text-anchor="middle" x="976" y="-99.8" font-family="Times,serif" font-size="14.00">HealthModule</text>
</g>
<!-- AppModule -->
<g id="node2" class="node">
<title>AppModule</title>
<polygon fill="#8dd3c7" stroke="black" points="546.66,-187 543.66,-191 522.66,-191 519.66,-187 463.34,-187 463.34,-151 546.66,-151 546.66,-187"/>
<text text-anchor="middle" x="505" y="-164.8" font-family="Times,serif" font-size="14.00">AppModule</text>
</g>
<!-- HealthModule&#45;&gt;AppModule -->
<g id="edge1" class="edge">
<title>HealthModule&#45;&gt;AppModule</title>
<path fill="none" stroke="black" d="M976,-122.29C976,-144.21 976,-178 976,-178 976,-178 556.8,-178 556.8,-178"/>
<polygon fill="black" stroke="black" points="556.8,-174.5 546.8,-178 556.8,-181.5 556.8,-174.5"/>
</g>
<!-- AppService -->
<g id="node3" class="node">
<title>AppService</title>
<ellipse fill="#fdb462" stroke="black" cx="847" cy="-104" rx="56.74" ry="18"/>
<text text-anchor="middle" x="847" y="-99.8" font-family="Times,serif" font-size="14.00">AppService</text>
</g>
<!-- AppService&#45;&gt;AppModule -->
<g id="edge2" class="edge">
<title>AppService&#45;&gt;AppModule</title>
<path fill="none" stroke="black" d="M847,-122.11C847,-141.34 847,-169 847,-169 847,-169 556.94,-169 556.94,-169"/>
<polygon fill="black" stroke="black" points="556.94,-165.5 546.94,-169 556.94,-172.5 556.94,-165.5"/>
</g>
<!-- CombustivelService -->
<g id="node4" class="node">
<title>CombustivelService</title>
<ellipse fill="#fdb462" stroke="black" cx="683" cy="-104" rx="89.2" ry="18"/>
<text text-anchor="middle" x="683" y="-99.8" font-family="Times,serif" font-size="14.00">CombustivelService</text>
</g>
<!-- CombustivelService&#45;&gt;AppModule -->
<g id="edge3" class="edge">
<title>CombustivelService&#45;&gt;AppModule</title>
<path fill="none" stroke="black" d="M683,-122.03C683,-138.4 683,-160 683,-160 683,-160 556.73,-160 556.73,-160"/>
<polygon fill="black" stroke="black" points="556.73,-156.5 546.73,-160 556.73,-163.5 556.73,-156.5"/>
</g>
<!-- InsightsService -->
<g id="node5" class="node">
<title>InsightsService</title>
<ellipse fill="#fdb462" stroke="black" cx="505" cy="-104" rx="70.64" ry="18"/>
<text text-anchor="middle" x="505" y="-99.8" font-family="Times,serif" font-size="14.00">InsightsService</text>
</g>
<!-- InsightsService&#45;&gt;AppModule -->
<g id="edge4" class="edge">
<title>InsightsService&#45;&gt;AppModule</title>
<path fill="none" stroke="black" d="M505,-122.11C505,-122.11 505,-140.99 505,-140.99"/>
<polygon fill="black" stroke="black" points="501.5,-140.99 505,-150.99 508.5,-140.99 501.5,-140.99"/>
</g>
<!-- PostoService -->
<g id="node6" class="node">
<title>PostoService</title>
<ellipse fill="#fdb462" stroke="black" cx="355" cy="-104" rx="61.41" ry="18"/>
<text text-anchor="middle" x="355" y="-99.8" font-family="Times,serif" font-size="14.00">PostoService</text>
</g>
<!-- PostoService&#45;&gt;AppModule -->
<g id="edge5" class="edge">
<title>PostoService&#45;&gt;AppModule</title>
<path fill="none" stroke="black" d="M355,-122.03C355,-138.4 355,-160 355,-160 355,-160 453.22,-160 453.22,-160"/>
<polygon fill="black" stroke="black" points="453.22,-163.5 463.22,-160 453.22,-156.5 453.22,-163.5"/>
</g>
<!-- PrecoService -->
<g id="node7" class="node">
<title>PrecoService</title>
<ellipse fill="#fdb462" stroke="black" cx="214" cy="-104" rx="61.95" ry="18"/>
<text text-anchor="middle" x="214" y="-99.8" font-family="Times,serif" font-size="14.00">PrecoService</text>
</g>
<!-- PrecoService&#45;&gt;AppModule -->
<g id="edge6" class="edge">
<title>PrecoService&#45;&gt;AppModule</title>
<path fill="none" stroke="black" d="M214,-122.11C214,-141.34 214,-169 214,-169 214,-169 453.31,-169 453.31,-169"/>
<polygon fill="black" stroke="black" points="453.31,-172.5 463.31,-169 453.31,-165.5 453.31,-172.5"/>
</g>
<!-- UtilService -->
<g id="node8" class="node">
<title>UtilService</title>
<ellipse fill="#fdb462" stroke="black" cx="79" cy="-104" rx="55.03" ry="18"/>
<text text-anchor="middle" x="79" y="-99.8" font-family="Times,serif" font-size="14.00">UtilService</text>
</g>
<!-- UtilService&#45;&gt;AppModule -->
<g id="edge7" class="edge">
<title>UtilService&#45;&gt;AppModule</title>
<path fill="none" stroke="black" d="M79,-122.29C79,-144.21 79,-178 79,-178 79,-178 452.99,-178 452.99,-178"/>
<polygon fill="black" stroke="black" points="452.99,-181.5 462.99,-178 452.99,-174.5 452.99,-181.5"/>
</g>
</g>
</svg>
