<?xml version="1.0" encoding="UTF-8" standalone="no"?>
<!DOCTYPE svg PUBLIC "-//W3C//DTD SVG 1.1//EN"
 "http://www.w3.org/Graphics/SVG/1.1/DTD/svg11.dtd">
<!-- Generated by graphviz version 2.47.0 (20210316.0004)
 -->
<!-- Title: dependencies Pages: 1 -->
<svg width="897pt" height="211pt"
 viewBox="0.00 0.00 897.00 211.00" xmlns="http://www.w3.org/2000/svg" xmlns:xlink="http://www.w3.org/1999/xlink">
<g id="graph0" class="graph" transform="scale(1 1) rotate(0) translate(4 207)">
<title>dependencies</title>
<polygon fill="white" stroke="transparent" points="-4,4 -4,-207 893,-207 893,4 -4,4"/>
<text text-anchor="start" x="423.51" y="-42.4" font-family="Times-12" font-weight="bold" font-size="14.00">Legend</text>
<polygon fill="#ffffb3" stroke="transparent" points="210.5,-10 210.5,-30 230.5,-30 230.5,-10 210.5,-10"/>
<text text-anchor="start" x="234.13" y="-15.4" font-family="Times-12" font-size="14.00"> &#160;Declarations</text>
<polygon fill="#8dd3c7" stroke="transparent" points="323.5,-10 323.5,-30 343.5,-30 343.5,-10 323.5,-10"/>
<text text-anchor="start" x="347.23" y="-15.4" font-family="Times-12" font-size="14.00"> &#160;Module</text>
<polygon fill="#80b1d3" stroke="transparent" points="409.5,-10 409.5,-30 429.5,-30 429.5,-10 409.5,-10"/>
<text text-anchor="start" x="433.28" y="-15.4" font-family="Times-12" font-size="14.00"> &#160;Bootstrap</text>
<polygon fill="#fdb462" stroke="transparent" points="506.5,-10 506.5,-30 526.5,-30 526.5,-10 506.5,-10"/>
<text text-anchor="start" x="530.17" y="-15.4" font-family="Times-12" font-size="14.00"> &#160;Providers</text>
<polygon fill="#fb8072" stroke="transparent" points="602.5,-10 602.5,-30 622.5,-30 622.5,-10 602.5,-10"/>
<text text-anchor="start" x="626.23" y="-15.4" font-family="Times-12" font-size="14.00"> &#160;Exports</text>
<g id="clust1" class="cluster">
<title>cluster_AppModule</title>
<polygon fill="none" stroke="black" stroke-dasharray="1,5" points="8,-70 8,-195 881,-195 881,-70 8,-70"/>
</g>
<g id="clust3" class="cluster">
<title>cluster_AppModule_imports</title>
<polygon fill="none" stroke="black" points="761,-78 761,-130 873,-130 873,-78 761,-78"/>
</g>
<g id="clust6" class="cluster">
<title>cluster_AppModule_providers</title>
<polygon fill="none" stroke="black" points="16,-78 16,-130 753,-130 753,-78 16,-78"/>
</g>
<!-- HealthModule -->
<g id="node1" class="node">
<title>HealthModule</title>
<polygon fill="#8dd3c7" stroke="black" points="865.37,-122 862.37,-126 841.37,-126 838.37,-122 768.63,-122 768.63,-86 865.37,-86 865.37,-122"/>
<text text-anchor="middle" x="817" y="-99.8" font-family="Times,serif" font-size="14.00">HealthModule</text>
</g>
<!-- AppModule -->
<g id="node2" class="node">
<title>AppModule</title>
<polygon fill="#8dd3c7" stroke="black" points="480.66,-187 477.66,-191 456.66,-191 453.66,-187 397.34,-187 397.34,-151 480.66,-151 480.66,-187"/>
<text text-anchor="middle" x="439" y="-164.8" font-family="Times,serif" font-size="14.00">AppModule</text>
</g>
<!-- HealthModule&#45;&gt;AppModule -->
<g id="edge1" class="edge">
<title>HealthModule&#45;&gt;AppModule</title>
<path fill="none" stroke="black" d="M817,-122.28C817,-143.32 817,-175 817,-175 817,-175 490.9,-175 490.9,-175"/>
<polygon fill="black" stroke="black" points="490.9,-171.5 480.9,-175 490.9,-178.5 490.9,-171.5"/>
</g>
<!-- AppService -->
<g id="node3" class="node">
<title>AppService</title>
<ellipse fill="#fdb462" stroke="black" cx="688" cy="-104" rx="56.74" ry="18"/>
<text text-anchor="middle" x="688" y="-99.8" font-family="Times,serif" font-size="14.00">AppService</text>
</g>
<!-- AppService&#45;&gt;AppModule -->
<g id="edge2" class="edge">
<title>AppService&#45;&gt;AppModule</title>
<path fill="none" stroke="black" d="M688,-122.02C688,-139.37 688,-163 688,-163 688,-163 490.68,-163 490.68,-163"/>
<polygon fill="black" stroke="black" points="490.68,-159.5 480.68,-163 490.68,-166.5 490.68,-159.5"/>
</g>
<!-- CombustivelService -->
<g id="node4" class="node">
<title>CombustivelService</title>
<ellipse fill="#fdb462" stroke="black" cx="524" cy="-104" rx="89.2" ry="18"/>
<text text-anchor="middle" x="524" y="-99.8" font-family="Times,serif" font-size="14.00">CombustivelService</text>
</g>
<!-- CombustivelService&#45;&gt;AppModule -->
<g id="edge3" class="edge">
<title>CombustivelService&#45;&gt;AppModule</title>
<path fill="none" stroke="black" d="M457.74,-116.23C457.74,-116.23 457.74,-140.68 457.74,-140.68"/>
<polygon fill="black" stroke="black" points="454.24,-140.68 457.74,-150.68 461.24,-140.68 454.24,-140.68"/>
</g>
<!-- PostoService -->
<g id="node5" class="node">
<title>PostoService</title>
<ellipse fill="#fdb462" stroke="black" cx="355" cy="-104" rx="61.41" ry="18"/>
<text text-anchor="middle" x="355" y="-99.8" font-family="Times,serif" font-size="14.00">PostoService</text>
</g>
<!-- PostoService&#45;&gt;AppModule -->
<g id="edge4" class="edge">
<title>PostoService&#45;&gt;AppModule</title>
<path fill="none" stroke="black" d="M406.81,-113.87C406.81,-113.87 406.81,-140.91 406.81,-140.91"/>
<polygon fill="black" stroke="black" points="403.31,-140.91 406.81,-150.91 410.31,-140.91 403.31,-140.91"/>
</g>
<!-- PrecoService -->
<g id="node6" class="node">
<title>PrecoService</title>
<ellipse fill="#fdb462" stroke="black" cx="214" cy="-104" rx="61.95" ry="18"/>
<text text-anchor="middle" x="214" y="-99.8" font-family="Times,serif" font-size="14.00">PrecoService</text>
</g>
<!-- PrecoService&#45;&gt;AppModule -->
<g id="edge5" class="edge">
<title>PrecoService&#45;&gt;AppModule</title>
<path fill="none" stroke="black" d="M214,-122.02C214,-139.37 214,-163 214,-163 214,-163 387.21,-163 387.21,-163"/>
<polygon fill="black" stroke="black" points="387.21,-166.5 397.21,-163 387.21,-159.5 387.21,-166.5"/>
</g>
<!-- UtilService -->
<g id="node7" class="node">
<title>UtilService</title>
<ellipse fill="#fdb462" stroke="black" cx="79" cy="-104" rx="55.03" ry="18"/>
<text text-anchor="middle" x="79" y="-99.8" font-family="Times,serif" font-size="14.00">UtilService</text>
</g>
<!-- UtilService&#45;&gt;AppModule -->
<g id="edge6" class="edge">
<title>UtilService&#45;&gt;AppModule</title>
<path fill="none" stroke="black" d="M79,-122.28C79,-143.32 79,-175 79,-175 79,-175 387,-175 387,-175"/>
<polygon fill="black" stroke="black" points="387,-178.5 397,-175 387,-171.5 387,-178.5"/>
</g>
</g>
</svg>
