<?xml version="1.0" encoding="UTF-8" standalone="no"?>
<!DOCTYPE svg PUBLIC "-//W3C//DTD SVG 1.1//EN"
 "http://www.w3.org/Graphics/SVG/1.1/DTD/svg11.dtd">
<!-- Generated by graphviz version 2.47.0 (20210316.0004)
 -->
<!-- Title: dependencies Pages: 1 -->
<svg width="1889pt" height="284pt"
 viewBox="0.00 0.00 1889.00 284.00" xmlns="http://www.w3.org/2000/svg" xmlns:xlink="http://www.w3.org/1999/xlink">
<g id="graph0" class="graph" transform="scale(1 1) rotate(0) translate(4 280)">
<title>dependencies</title>
<polygon fill="white" stroke="transparent" points="-4,4 -4,-280 1885,-280 1885,4 -4,4"/>
<text text-anchor="start" x="919.51" y="-42.4" font-family="Times-12" font-weight="bold" font-size="14.00">Legend</text>
<polygon fill="#ffffb3" stroke="transparent" points="706.5,-10 706.5,-30 726.5,-30 726.5,-10 706.5,-10"/>
<text text-anchor="start" x="730.13" y="-15.4" font-family="Times-12" font-size="14.00"> &#160;Declarations</text>
<polygon fill="#8dd3c7" stroke="transparent" points="819.5,-10 819.5,-30 839.5,-30 839.5,-10 819.5,-10"/>
<text text-anchor="start" x="843.23" y="-15.4" font-family="Times-12" font-size="14.00"> &#160;Module</text>
<polygon fill="#80b1d3" stroke="transparent" points="905.5,-10 905.5,-30 925.5,-30 925.5,-10 905.5,-10"/>
<text text-anchor="start" x="929.28" y="-15.4" font-family="Times-12" font-size="14.00"> &#160;Bootstrap</text>
<polygon fill="#fdb462" stroke="transparent" points="1002.5,-10 1002.5,-30 1022.5,-30 1022.5,-10 1002.5,-10"/>
<text text-anchor="start" x="1026.17" y="-15.4" font-family="Times-12" font-size="14.00"> &#160;Providers</text>
<polygon fill="#fb8072" stroke="transparent" points="1098.5,-10 1098.5,-30 1118.5,-30 1118.5,-10 1098.5,-10"/>
<text text-anchor="start" x="1122.23" y="-15.4" font-family="Times-12" font-size="14.00"> &#160;Exports</text>
<g id="clust1" class="cluster">
<title>cluster_AppModule</title>
<polygon fill="none" stroke="black" stroke-dasharray="1,5" points="8,-70 8,-268 1873,-268 1873,-70 8,-70"/>
</g>
<g id="clust14" class="cluster">
<title>cluster_AppModule_imports</title>
<polygon fill="none" stroke="black" points="1721,-78 1721,-130 1865,-130 1865,-78 1721,-78"/>
</g>
<g id="clust16" class="cluster">
<title>cluster_AppModule_bootstrap</title>
<polygon fill="none" stroke="black" points="943,-208 943,-260 1067,-260 1067,-208 943,-208"/>
</g>
<g id="clust2" class="cluster">
<title>cluster_AppModule_declarations</title>
<polygon fill="none" stroke="black" points="16,-78 16,-130 1713,-130 1713,-78 16,-78"/>
</g>
<!-- AboutComponent -->
<g id="node1" class="node">
<title>AboutComponent</title>
<polygon fill="#ffffb3" stroke="black" points="1705.33,-122 1588.67,-122 1588.67,-86 1705.33,-86 1705.33,-122"/>
<text text-anchor="middle" x="1647" y="-99.8" font-family="Times,serif" font-size="14.00">AboutComponent</text>
</g>
<!-- AppModule -->
<g id="node12" class="node">
<title>AppModule</title>
<polygon fill="#8dd3c7" stroke="black" points="1046.66,-187 1043.66,-191 1022.66,-191 1019.66,-187 963.34,-187 963.34,-151 1046.66,-151 1046.66,-187"/>
<text text-anchor="middle" x="1005" y="-164.8" font-family="Times,serif" font-size="14.00">AppModule</text>
</g>
<!-- AboutComponent&#45;&gt;AppModule -->
<g id="edge1" class="edge">
<title>AboutComponent&#45;&gt;AppModule</title>
<path fill="none" stroke="black" d="M1647,-122.28C1647,-143.32 1647,-175 1647,-175 1647,-175 1057.12,-175 1057.12,-175"/>
<polygon fill="black" stroke="black" points="1057.12,-171.5 1047.12,-175 1057.12,-178.5 1057.12,-171.5"/>
</g>
<!-- AppComponent -->
<g id="node2" class="node">
<title>AppComponent</title>
<polygon fill="#ffffb3" stroke="black" points="1570.94,-122 1465.06,-122 1465.06,-86 1570.94,-86 1570.94,-122"/>
<text text-anchor="middle" x="1518" y="-99.8" font-family="Times,serif" font-size="14.00">AppComponent</text>
</g>
<!-- AppComponent&#45;&gt;AppModule -->
<g id="edge2" class="edge">
<title>AppComponent&#45;&gt;AppModule</title>
<path fill="none" stroke="black" d="M1518,-122.11C1518,-141.34 1518,-169 1518,-169 1518,-169 1056.98,-169 1056.98,-169"/>
<polygon fill="black" stroke="black" points="1056.98,-165.5 1046.98,-169 1056.98,-172.5 1056.98,-165.5"/>
</g>
<!-- AveragePricesComponent -->
<g id="node3" class="node">
<title>AveragePricesComponent</title>
<polygon fill="#ffffb3" stroke="black" points="1447.45,-122 1284.55,-122 1284.55,-86 1447.45,-86 1447.45,-122"/>
<text text-anchor="middle" x="1366" y="-99.8" font-family="Times,serif" font-size="14.00">AveragePricesComponent</text>
</g>
<!-- AveragePricesComponent&#45;&gt;AppModule -->
<g id="edge3" class="edge">
<title>AveragePricesComponent&#45;&gt;AppModule</title>
<path fill="none" stroke="black" d="M1366,-122.02C1366,-139.37 1366,-163 1366,-163 1366,-163 1056.76,-163 1056.76,-163"/>
<polygon fill="black" stroke="black" points="1056.76,-159.5 1046.76,-163 1056.76,-166.5 1056.76,-159.5"/>
</g>
<!-- CepMaskPipe -->
<g id="node4" class="node">
<title>CepMaskPipe</title>
<polygon fill="#ffffb3" stroke="black" points="1266.04,-122 1171.96,-122 1171.96,-86 1266.04,-86 1266.04,-122"/>
<text text-anchor="middle" x="1219" y="-99.8" font-family="Times,serif" font-size="14.00">CepMaskPipe</text>
</g>
<!-- CepMaskPipe&#45;&gt;AppModule -->
<g id="edge4" class="edge">
<title>CepMaskPipe&#45;&gt;AppModule</title>
<path fill="none" stroke="black" d="M1219,-122.24C1219,-137.57 1219,-157 1219,-157 1219,-157 1056.77,-157 1056.77,-157"/>
<polygon fill="black" stroke="black" points="1056.77,-153.5 1046.77,-157 1056.77,-160.5 1056.77,-153.5"/>
</g>
<!-- ContactComponent -->
<g id="node5" class="node">
<title>ContactComponent</title>
<polygon fill="#ffffb3" stroke="black" points="1153.38,-122 1028.62,-122 1028.62,-86 1153.38,-86 1153.38,-122"/>
<text text-anchor="middle" x="1091" y="-99.8" font-family="Times,serif" font-size="14.00">ContactComponent</text>
</g>
<!-- ContactComponent&#45;&gt;AppModule -->
<g id="edge5" class="edge">
<title>ContactComponent&#45;&gt;AppModule</title>
<path fill="none" stroke="black" d="M1037.69,-122.11C1037.69,-122.11 1037.69,-140.99 1037.69,-140.99"/>
<polygon fill="black" stroke="black" points="1034.19,-140.99 1037.69,-150.99 1041.19,-140.99 1034.19,-140.99"/>
</g>
<!-- GasStationDetailsComponent -->
<g id="node6" class="node">
<title>GasStationDetailsComponent</title>
<polygon fill="#ffffb3" stroke="black" points="1010.42,-122 827.58,-122 827.58,-86 1010.42,-86 1010.42,-122"/>
<text text-anchor="middle" x="919" y="-99.8" font-family="Times,serif" font-size="14.00">GasStationDetailsComponent</text>
</g>
<!-- GasStationDetailsComponent&#45;&gt;AppModule -->
<g id="edge6" class="edge">
<title>GasStationDetailsComponent&#45;&gt;AppModule</title>
<path fill="none" stroke="black" d="M986.69,-122.11C986.69,-122.11 986.69,-140.99 986.69,-140.99"/>
<polygon fill="black" stroke="black" points="983.19,-140.99 986.69,-150.99 990.19,-140.99 983.19,-140.99"/>
</g>
<!-- GasStationListComponent -->
<g id="node7" class="node">
<title>GasStationListComponent</title>
<polygon fill="#ffffb3" stroke="black" points="810.05,-122 645.95,-122 645.95,-86 810.05,-86 810.05,-122"/>
<text text-anchor="middle" x="728" y="-99.8" font-family="Times,serif" font-size="14.00">GasStationListComponent</text>
</g>
<!-- GasStationListComponent&#45;&gt;AppModule -->
<g id="edge7" class="edge">
<title>GasStationListComponent&#45;&gt;AppModule</title>
<path fill="none" stroke="black" d="M728,-122.24C728,-137.57 728,-157 728,-157 728,-157 953.23,-157 953.23,-157"/>
<polygon fill="black" stroke="black" points="953.23,-160.5 963.23,-157 953.23,-153.5 953.23,-160.5"/>
</g>
<!-- ModalAlertComponent -->
<g id="node8" class="node">
<title>ModalAlertComponent</title>
<polygon fill="#ffffb3" stroke="black" points="627.15,-122 480.85,-122 480.85,-86 627.15,-86 627.15,-122"/>
<text text-anchor="middle" x="554" y="-99.8" font-family="Times,serif" font-size="14.00">ModalAlertComponent</text>
</g>
<!-- ModalAlertComponent&#45;&gt;AppModule -->
<g id="edge8" class="edge">
<title>ModalAlertComponent&#45;&gt;AppModule</title>
<path fill="none" stroke="black" d="M554,-122.02C554,-139.37 554,-163 554,-163 554,-163 952.98,-163 952.98,-163"/>
<polygon fill="black" stroke="black" points="952.98,-166.5 962.98,-163 952.98,-159.5 952.98,-166.5"/>
</g>
<!-- PriceChartsComponent -->
<g id="node9" class="node">
<title>PriceChartsComponent</title>
<polygon fill="#ffffb3" stroke="black" points="462.14,-122 315.86,-122 315.86,-86 462.14,-86 462.14,-122"/>
<text text-anchor="middle" x="389" y="-99.8" font-family="Times,serif" font-size="14.00">PriceChartsComponent</text>
</g>
<!-- PriceChartsComponent&#45;&gt;AppModule -->
<g id="edge9" class="edge">
<title>PriceChartsComponent&#45;&gt;AppModule</title>
<path fill="none" stroke="black" d="M389,-122.11C389,-141.34 389,-169 389,-169 389,-169 953.14,-169 953.14,-169"/>
<polygon fill="black" stroke="black" points="953.14,-172.5 963.14,-169 953.14,-165.5 953.14,-172.5"/>
</g>
<!-- ReplaceCommaPipe -->
<g id="node10" class="node">
<title>ReplaceCommaPipe</title>
<polygon fill="#ffffb3" stroke="black" points="298.31,-122 167.69,-122 167.69,-86 298.31,-86 298.31,-122"/>
<text text-anchor="middle" x="233" y="-99.8" font-family="Times,serif" font-size="14.00">ReplaceCommaPipe</text>
</g>
<!-- ReplaceCommaPipe&#45;&gt;AppModule -->
<g id="edge10" class="edge">
<title>ReplaceCommaPipe&#45;&gt;AppModule</title>
<path fill="none" stroke="black" d="M233,-122.28C233,-143.32 233,-175 233,-175 233,-175 953.22,-175 953.22,-175"/>
<polygon fill="black" stroke="black" points="953.22,-178.5 963.22,-175 953.22,-171.5 953.22,-178.5"/>
</g>
<!-- SidenavComponent -->
<g id="node11" class="node">
<title>SidenavComponent</title>
<polygon fill="#ffffb3" stroke="black" points="150.44,-122 23.56,-122 23.56,-86 150.44,-86 150.44,-122"/>
<text text-anchor="middle" x="87" y="-99.8" font-family="Times,serif" font-size="14.00">SidenavComponent</text>
</g>
<!-- SidenavComponent&#45;&gt;AppModule -->
<g id="edge11" class="edge">
<title>SidenavComponent&#45;&gt;AppModule</title>
<path fill="none" stroke="black" d="M87,-122.25C87,-145.02 87,-181 87,-181 87,-181 953.17,-181 953.17,-181"/>
<polygon fill="black" stroke="black" points="953.17,-184.5 963.17,-181 953.17,-177.5 953.17,-184.5"/>
</g>
<!-- AppComponent  -->
<g id="node14" class="node">
<title>AppComponent </title>
<polygon fill="#80b1d3" stroke="black" points="1059.44,-252 950.56,-252 950.56,-216 1059.44,-216 1059.44,-252"/>
<text text-anchor="middle" x="1005" y="-229.8" font-family="Times,serif" font-size="14.00">AppComponent </text>
</g>
<!-- AppModule&#45;&gt;AppComponent  -->
<g id="edge13" class="edge">
<title>AppModule&#45;&gt;AppComponent </title>
<path fill="none" stroke="black" stroke-dasharray="1,5" d="M1005,-187.11C1005,-187.11 1005,-205.99 1005,-205.99"/>
<polygon fill="black" stroke="black" points="1001.5,-205.99 1005,-215.99 1008.5,-205.99 1001.5,-205.99"/>
</g>
<!-- AppRoutingModule -->
<g id="node13" class="node">
<title>AppRoutingModule</title>
<polygon fill="#8dd3c7" stroke="black" points="1857.27,-122 1854.27,-126 1833.27,-126 1830.27,-122 1728.73,-122 1728.73,-86 1857.27,-86 1857.27,-122"/>
<text text-anchor="middle" x="1793" y="-99.8" font-family="Times,serif" font-size="14.00">AppRoutingModule</text>
</g>
<!-- AppRoutingModule&#45;&gt;AppModule -->
<g id="edge12" class="edge">
<title>AppRoutingModule&#45;&gt;AppModule</title>
<path fill="none" stroke="black" d="M1793,-122.25C1793,-145.02 1793,-181 1793,-181 1793,-181 1056.81,-181 1056.81,-181"/>
<polygon fill="black" stroke="black" points="1056.81,-177.5 1046.81,-181 1056.81,-184.5 1056.81,-177.5"/>
</g>
</g>
</svg>
