<?xml version="1.0" encoding="UTF-8" standalone="no"?>
<!DOCTYPE svg PUBLIC "-//W3C//DTD SVG 1.1//EN"
 "http://www.w3.org/Graphics/SVG/1.1/DTD/svg11.dtd">
<!-- Generated by graphviz version 2.47.0 (20210316.0004)
 -->
<!-- Title: dependencies Pages: 1 -->
<svg width="897pt" height="211pt"
 viewBox="0.00 0.00 897.00 211.00" xmlns="http://www.w3.org/2000/svg" xmlns:xlink="http://www.w3.org/1999/xlink">
<g id="graph0" class="graph" transform="scale(1 1) rotate(0) translate(4 207)">
<title>dependencies</title>
<polygon fill="white" stroke="transparent" points="-4,4 -4,-207 893,-207 893,4 -4,4"/>
<text text-anchor="start" x="423.51" y="-42.4" font-family="Times-12" font-weight="bold" font-size="14.00">Legend</text>
<polygon fill="#ffffb3" stroke="transparent" points="210.5,-10 210.5,-30 230.5,-30 230.5,-10 210.5,-10"/>
<text text-anchor="start" x="234.13" y="-15.4" font-family="Times-12" font-size="14.00"> &#160;Declarations</text>
<polygon fill="#8dd3c7" stroke="transparent" points="323.5,-10 323.5,-30 343.5,-30 343.5,-10 323.5,-10"/>
<text text-anchor="start" x="347.23" y="-15.4" font-family="Times-12" font-size="14.00"> &#160;Module</text>
<polygon fill="#80b1d3" stroke="transparent" points="409.5,-10 409.5,-30 429.5,-30 429.5,-10 409.5,-10"/>
<text text-anchor="start" x="433.28" y="-15.4" font-family="Times-12" font-size="14.00"> &#160;Bootstrap</text>
<polygon fill="#fdb462" stroke="transparent" points="506.5,-10 506.5,-30 526.5,-30 526.5,-10 506.5,-10"/>
<text text-anchor="start" x="530.17" y="-15.4" font-family="Times-12" font-size="14.00"> &#160;Providers</text>
<polygon fill="#fb8072" stroke="transparent" points="602.5,-10 602.5,-30 622.5,-30 622.5,-10 602.5,-10"/>
<text text-anchor="start" x="626.23" y="-15.4" font-family="Times-12" font-size="14.00"> &#160;Exports</text>
<g id="clust1" class="cluster">
<title>cluster_AppModule</title>
<polygon fill="none" stroke="black" stroke-dasharray="1,5" points="8,-70 8,-195 881,-195 881,-70 8,-70"/>
</g>
<g id="clust6" class="cluster">
<title>cluster_AppModule_providers</title>
<polygon fill="none" stroke="black" points="136,-78 136,-130 873,-130 873,-78 136,-78"/>
</g>
<g id="clust3" class="cluster">
<title>cluster_AppModule_imports</title>
<polygon fill="none" stroke="black" points="16,-78 16,-130 128,-130 128,-78 16,-78"/>
</g>
<!-- HealthModule -->
<g id="node1" class="node">
<title>HealthModule</title>
<polygon fill="#8dd3c7" stroke="black" points="120.37,-122 117.37,-126 96.37,-126 93.37,-122 23.63,-122 23.63,-86 120.37,-86 120.37,-122"/>
<text text-anchor="middle" x="72" y="-99.8" font-family="Times,serif" font-size="14.00">HealthModule</text>
</g>
<!-- AppModule -->
<g id="node2" class="node">
<title>AppModule</title>
<polygon fill="#8dd3c7" stroke="black" points="445.66,-187 442.66,-191 421.66,-191 418.66,-187 362.34,-187 362.34,-151 445.66,-151 445.66,-187"/>
<text text-anchor="middle" x="404" y="-164.8" font-family="Times,serif" font-size="14.00">AppModule</text>
</g>
<!-- HealthModule&#45;&gt;AppModule -->
<g id="edge1" class="edge">
<title>HealthModule&#45;&gt;AppModule</title>
<path fill="none" stroke="black" d="M72,-122.28C72,-143.32 72,-175 72,-175 72,-175 352.29,-175 352.29,-175"/>
<polygon fill="black" stroke="black" points="352.29,-178.5 362.29,-175 352.29,-171.5 352.29,-178.5"/>
</g>
<!-- AppService -->
<g id="node3" class="node">
<title>AppService</title>
<ellipse fill="#fdb462" stroke="black" cx="808" cy="-104" rx="56.74" ry="18"/>
<text text-anchor="middle" x="808" y="-99.8" font-family="Times,serif" font-size="14.00">AppService</text>
</g>
<!-- AppService&#45;&gt;AppModule -->
<g id="edge2" class="edge">
<title>AppService&#45;&gt;AppModule</title>
<path fill="none" stroke="black" d="M808,-122.28C808,-143.32 808,-175 808,-175 808,-175 455.71,-175 455.71,-175"/>
<polygon fill="black" stroke="black" points="455.71,-171.5 445.71,-175 455.71,-178.5 455.71,-171.5"/>
</g>
<!-- CombustivelService -->
<g id="node4" class="node">
<title>CombustivelService</title>
<ellipse fill="#fdb462" stroke="black" cx="644" cy="-104" rx="89.2" ry="18"/>
<text text-anchor="middle" x="644" y="-99.8" font-family="Times,serif" font-size="14.00">CombustivelService</text>
</g>
<!-- CombustivelService&#45;&gt;AppModule -->
<g id="edge3" class="edge">
<title>CombustivelService&#45;&gt;AppModule</title>
<path fill="none" stroke="black" d="M644,-122.02C644,-139.37 644,-163 644,-163 644,-163 455.8,-163 455.8,-163"/>
<polygon fill="black" stroke="black" points="455.8,-159.5 445.8,-163 455.8,-166.5 455.8,-159.5"/>
</g>
<!-- PostoService -->
<g id="node5" class="node">
<title>PostoService</title>
<ellipse fill="#fdb462" stroke="black" cx="475" cy="-104" rx="61.41" ry="18"/>
<text text-anchor="middle" x="475" y="-99.8" font-family="Times,serif" font-size="14.00">PostoService</text>
</g>
<!-- PostoService&#45;&gt;AppModule -->
<g id="edge4" class="edge">
<title>PostoService&#45;&gt;AppModule</title>
<path fill="none" stroke="black" d="M429.69,-116.23C429.69,-116.23 429.69,-140.68 429.69,-140.68"/>
<polygon fill="black" stroke="black" points="426.19,-140.68 429.69,-150.68 433.19,-140.68 426.19,-140.68"/>
</g>
<!-- PrecoService -->
<g id="node6" class="node">
<title>PrecoService</title>
<ellipse fill="#fdb462" stroke="black" cx="334" cy="-104" rx="61.95" ry="18"/>
<text text-anchor="middle" x="334" y="-99.8" font-family="Times,serif" font-size="14.00">PrecoService</text>
</g>
<!-- PrecoService&#45;&gt;AppModule -->
<g id="edge5" class="edge">
<title>PrecoService&#45;&gt;AppModule</title>
<path fill="none" stroke="black" d="M379.07,-116.53C379.07,-116.53 379.07,-140.85 379.07,-140.85"/>
<polygon fill="black" stroke="black" points="375.57,-140.85 379.07,-150.85 382.57,-140.85 375.57,-140.85"/>
</g>
<!-- UtilService -->
<g id="node7" class="node">
<title>UtilService</title>
<ellipse fill="#fdb462" stroke="black" cx="199" cy="-104" rx="55.03" ry="18"/>
<text text-anchor="middle" x="199" y="-99.8" font-family="Times,serif" font-size="14.00">UtilService</text>
</g>
<!-- UtilService&#45;&gt;AppModule -->
<g id="edge6" class="edge">
<title>UtilService&#45;&gt;AppModule</title>
<path fill="none" stroke="black" d="M199,-122.02C199,-139.37 199,-163 199,-163 199,-163 352.02,-163 352.02,-163"/>
<polygon fill="black" stroke="black" points="352.02,-166.5 362.02,-163 352.02,-159.5 352.02,-166.5"/>
</g>
</g>
</svg>
