<?xml version="1.0" encoding="UTF-8" standalone="no"?>
<!DOCTYPE svg PUBLIC "-//W3C//DTD SVG 1.1//EN"
 "http://www.w3.org/Graphics/SVG/1.1/DTD/svg11.dtd">
<!-- Generated by graphviz version 2.47.0 (20210316.0004)
 -->
<!-- Title: dependencies Pages: 1 -->
<svg width="1889pt" height="284pt"
 viewBox="0.00 0.00 1889.00 284.00" xmlns="http://www.w3.org/2000/svg" xmlns:xlink="http://www.w3.org/1999/xlink">
<g id="graph0" class="graph" transform="scale(1 1) rotate(0) translate(4 280)">
<title>dependencies</title>
<polygon fill="white" stroke="transparent" points="-4,4 -4,-280 1885,-280 1885,4 -4,4"/>
<text text-anchor="start" x="919.51" y="-42.4" font-family="Times-12" font-weight="bold" font-size="14.00">Legend</text>
<polygon fill="#ffffb3" stroke="transparent" points="706.5,-10 706.5,-30 726.5,-30 726.5,-10 706.5,-10"/>
<text text-anchor="start" x="730.13" y="-15.4" font-family="Times-12" font-size="14.00"> &#160;Declarations</text>
<polygon fill="#8dd3c7" stroke="transparent" points="819.5,-10 819.5,-30 839.5,-30 839.5,-10 819.5,-10"/>
<text text-anchor="start" x="843.23" y="-15.4" font-family="Times-12" font-size="14.00"> &#160;Module</text>
<polygon fill="#80b1d3" stroke="transparent" points="905.5,-10 905.5,-30 925.5,-30 925.5,-10 905.5,-10"/>
<text text-anchor="start" x="929.28" y="-15.4" font-family="Times-12" font-size="14.00"> &#160;Bootstrap</text>
<polygon fill="#fdb462" stroke="transparent" points="1002.5,-10 1002.5,-30 1022.5,-30 1022.5,-10 1002.5,-10"/>
<text text-anchor="start" x="1026.17" y="-15.4" font-family="Times-12" font-size="14.00"> &#160;Providers</text>
<polygon fill="#fb8072" stroke="transparent" points="1098.5,-10 1098.5,-30 1118.5,-30 1118.5,-10 1098.5,-10"/>
<text text-anchor="start" x="1122.23" y="-15.4" font-family="Times-12" font-size="14.00"> &#160;Exports</text>
<g id="clust1" class="cluster">
<title>cluster_AppModule</title>
<polygon fill="none" stroke="black" stroke-dasharray="1,5" points="8,-70 8,-268 1873,-268 1873,-70 8,-70"/>
</g>
<g id="clust2" class="cluster">
<title>cluster_AppModule_declarations</title>
<polygon fill="none" stroke="black" points="168,-78 168,-130 1865,-130 1865,-78 168,-78"/>
</g>
<g id="clust14" class="cluster">
<title>cluster_AppModule_imports</title>
<polygon fill="none" stroke="black" points="16,-78 16,-130 160,-130 160,-78 16,-78"/>
</g>
<g id="clust16" class="cluster">
<title>cluster_AppModule_bootstrap</title>
<polygon fill="none" stroke="black" points="913,-208 913,-260 1037,-260 1037,-208 913,-208"/>
</g>
<!-- AboutComponent -->
<g id="node1" class="node">
<title>AboutComponent</title>
<polygon fill="#ffffb3" stroke="black" points="1857.33,-122 1740.67,-122 1740.67,-86 1857.33,-86 1857.33,-122"/>
<text text-anchor="middle" x="1799" y="-99.8" font-family="Times,serif" font-size="14.00">AboutComponent</text>
</g>
<!-- AppModule -->
<g id="node12" class="node">
<title>AppModule</title>
<polygon fill="#8dd3c7" stroke="black" points="1016.66,-187 1013.66,-191 992.66,-191 989.66,-187 933.34,-187 933.34,-151 1016.66,-151 1016.66,-187"/>
<text text-anchor="middle" x="975" y="-164.8" font-family="Times,serif" font-size="14.00">AppModule</text>
</g>
<!-- AboutComponent&#45;&gt;AppModule -->
<g id="edge1" class="edge">
<title>AboutComponent&#45;&gt;AppModule</title>
<path fill="none" stroke="black" d="M1799,-122.25C1799,-145.02 1799,-181 1799,-181 1799,-181 1026.71,-181 1026.71,-181"/>
<polygon fill="black" stroke="black" points="1026.71,-177.5 1016.71,-181 1026.71,-184.5 1026.71,-177.5"/>
</g>
<!-- AppComponent -->
<g id="node2" class="node">
<title>AppComponent</title>
<polygon fill="#ffffb3" stroke="black" points="1722.94,-122 1617.06,-122 1617.06,-86 1722.94,-86 1722.94,-122"/>
<text text-anchor="middle" x="1670" y="-99.8" font-family="Times,serif" font-size="14.00">AppComponent</text>
</g>
<!-- AppComponent&#45;&gt;AppModule -->
<g id="edge2" class="edge">
<title>AppComponent&#45;&gt;AppModule</title>
<path fill="none" stroke="black" d="M1670,-122.28C1670,-143.32 1670,-175 1670,-175 1670,-175 1026.91,-175 1026.91,-175"/>
<polygon fill="black" stroke="black" points="1026.91,-171.5 1016.91,-175 1026.91,-178.5 1026.91,-171.5"/>
</g>
<!-- AveragePricesComponent -->
<g id="node3" class="node">
<title>AveragePricesComponent</title>
<polygon fill="#ffffb3" stroke="black" points="1599.45,-122 1436.55,-122 1436.55,-86 1599.45,-86 1599.45,-122"/>
<text text-anchor="middle" x="1518" y="-99.8" font-family="Times,serif" font-size="14.00">AveragePricesComponent</text>
</g>
<!-- AveragePricesComponent&#45;&gt;AppModule -->
<g id="edge3" class="edge">
<title>AveragePricesComponent&#45;&gt;AppModule</title>
<path fill="none" stroke="black" d="M1518,-122.11C1518,-141.34 1518,-169 1518,-169 1518,-169 1026.71,-169 1026.71,-169"/>
<polygon fill="black" stroke="black" points="1026.71,-165.5 1016.71,-169 1026.71,-172.5 1026.71,-165.5"/>
</g>
<!-- CepMaskPipe -->
<g id="node4" class="node">
<title>CepMaskPipe</title>
<polygon fill="#ffffb3" stroke="black" points="1418.04,-122 1323.96,-122 1323.96,-86 1418.04,-86 1418.04,-122"/>
<text text-anchor="middle" x="1371" y="-99.8" font-family="Times,serif" font-size="14.00">CepMaskPipe</text>
</g>
<!-- CepMaskPipe&#45;&gt;AppModule -->
<g id="edge4" class="edge">
<title>CepMaskPipe&#45;&gt;AppModule</title>
<path fill="none" stroke="black" d="M1371,-122.02C1371,-139.37 1371,-163 1371,-163 1371,-163 1027,-163 1027,-163"/>
<polygon fill="black" stroke="black" points="1027,-159.5 1017,-163 1027,-166.5 1027,-159.5"/>
</g>
<!-- ContactComponent -->
<g id="node5" class="node">
<title>ContactComponent</title>
<polygon fill="#ffffb3" stroke="black" points="1305.38,-122 1180.62,-122 1180.62,-86 1305.38,-86 1305.38,-122"/>
<text text-anchor="middle" x="1243" y="-99.8" font-family="Times,serif" font-size="14.00">ContactComponent</text>
</g>
<!-- ContactComponent&#45;&gt;AppModule -->
<g id="edge5" class="edge">
<title>ContactComponent&#45;&gt;AppModule</title>
<path fill="none" stroke="black" d="M1243,-122.24C1243,-137.57 1243,-157 1243,-157 1243,-157 1026.88,-157 1026.88,-157"/>
<polygon fill="black" stroke="black" points="1026.88,-153.5 1016.88,-157 1026.87,-160.5 1026.88,-153.5"/>
</g>
<!-- GasStationDetailsComponent -->
<g id="node6" class="node">
<title>GasStationDetailsComponent</title>
<polygon fill="#ffffb3" stroke="black" points="1162.42,-122 979.58,-122 979.58,-86 1162.42,-86 1162.42,-122"/>
<text text-anchor="middle" x="1071" y="-99.8" font-family="Times,serif" font-size="14.00">GasStationDetailsComponent</text>
</g>
<!-- GasStationDetailsComponent&#45;&gt;AppModule -->
<g id="edge6" class="edge">
<title>GasStationDetailsComponent&#45;&gt;AppModule</title>
<path fill="none" stroke="black" d="M998.31,-122.11C998.31,-122.11 998.31,-140.99 998.31,-140.99"/>
<polygon fill="black" stroke="black" points="994.81,-140.99 998.31,-150.99 1001.81,-140.99 994.81,-140.99"/>
</g>
<!-- GasStationListComponent -->
<g id="node7" class="node">
<title>GasStationListComponent</title>
<polygon fill="#ffffb3" stroke="black" points="962.05,-122 797.95,-122 797.95,-86 962.05,-86 962.05,-122"/>
<text text-anchor="middle" x="880" y="-99.8" font-family="Times,serif" font-size="14.00">GasStationListComponent</text>
</g>
<!-- GasStationListComponent&#45;&gt;AppModule -->
<g id="edge7" class="edge">
<title>GasStationListComponent&#45;&gt;AppModule</title>
<path fill="none" stroke="black" d="M947.72,-122.11C947.72,-122.11 947.72,-140.99 947.72,-140.99"/>
<polygon fill="black" stroke="black" points="944.22,-140.99 947.72,-150.99 951.22,-140.99 944.22,-140.99"/>
</g>
<!-- ModalAlertComponent -->
<g id="node8" class="node">
<title>ModalAlertComponent</title>
<polygon fill="#ffffb3" stroke="black" points="779.15,-122 632.85,-122 632.85,-86 779.15,-86 779.15,-122"/>
<text text-anchor="middle" x="706" y="-99.8" font-family="Times,serif" font-size="14.00">ModalAlertComponent</text>
</g>
<!-- ModalAlertComponent&#45;&gt;AppModule -->
<g id="edge8" class="edge">
<title>ModalAlertComponent&#45;&gt;AppModule</title>
<path fill="none" stroke="black" d="M706,-122.24C706,-137.57 706,-157 706,-157 706,-157 923.26,-157 923.26,-157"/>
<polygon fill="black" stroke="black" points="923.26,-160.5 933.26,-157 923.26,-153.5 923.26,-160.5"/>
</g>
<!-- PriceChartsComponent -->
<g id="node9" class="node">
<title>PriceChartsComponent</title>
<polygon fill="#ffffb3" stroke="black" points="614.14,-122 467.86,-122 467.86,-86 614.14,-86 614.14,-122"/>
<text text-anchor="middle" x="541" y="-99.8" font-family="Times,serif" font-size="14.00">PriceChartsComponent</text>
</g>
<!-- PriceChartsComponent&#45;&gt;AppModule -->
<g id="edge9" class="edge">
<title>PriceChartsComponent&#45;&gt;AppModule</title>
<path fill="none" stroke="black" d="M541,-122.02C541,-139.37 541,-163 541,-163 541,-163 922.99,-163 922.99,-163"/>
<polygon fill="black" stroke="black" points="922.99,-166.5 932.99,-163 922.99,-159.5 922.99,-166.5"/>
</g>
<!-- ReplaceCommaPipe -->
<g id="node10" class="node">
<title>ReplaceCommaPipe</title>
<polygon fill="#ffffb3" stroke="black" points="450.31,-122 319.69,-122 319.69,-86 450.31,-86 450.31,-122"/>
<text text-anchor="middle" x="385" y="-99.8" font-family="Times,serif" font-size="14.00">ReplaceCommaPipe</text>
</g>
<!-- ReplaceCommaPipe&#45;&gt;AppModule -->
<g id="edge10" class="edge">
<title>ReplaceCommaPipe&#45;&gt;AppModule</title>
<path fill="none" stroke="black" d="M385,-122.11C385,-141.34 385,-169 385,-169 385,-169 923.04,-169 923.04,-169"/>
<polygon fill="black" stroke="black" points="923.04,-172.5 933.04,-169 923.04,-165.5 923.04,-172.5"/>
</g>
<!-- SidenavComponent -->
<g id="node11" class="node">
<title>SidenavComponent</title>
<polygon fill="#ffffb3" stroke="black" points="302.44,-122 175.56,-122 175.56,-86 302.44,-86 302.44,-122"/>
<text text-anchor="middle" x="239" y="-99.8" font-family="Times,serif" font-size="14.00">SidenavComponent</text>
</g>
<!-- SidenavComponent&#45;&gt;AppModule -->
<g id="edge11" class="edge">
<title>SidenavComponent&#45;&gt;AppModule</title>
<path fill="none" stroke="black" d="M239,-122.28C239,-143.32 239,-175 239,-175 239,-175 923.32,-175 923.32,-175"/>
<polygon fill="black" stroke="black" points="923.32,-178.5 933.32,-175 923.32,-171.5 923.32,-178.5"/>
</g>
<!-- AppComponent  -->
<g id="node14" class="node">
<title>AppComponent </title>
<polygon fill="#80b1d3" stroke="black" points="1029.44,-252 920.56,-252 920.56,-216 1029.44,-216 1029.44,-252"/>
<text text-anchor="middle" x="975" y="-229.8" font-family="Times,serif" font-size="14.00">AppComponent </text>
</g>
<!-- AppModule&#45;&gt;AppComponent  -->
<g id="edge13" class="edge">
<title>AppModule&#45;&gt;AppComponent </title>
<path fill="none" stroke="black" stroke-dasharray="1,5" d="M975,-187.11C975,-187.11 975,-205.99 975,-205.99"/>
<polygon fill="black" stroke="black" points="971.5,-205.99 975,-215.99 978.5,-205.99 971.5,-205.99"/>
</g>
<!-- AppRoutingModule -->
<g id="node13" class="node">
<title>AppRoutingModule</title>
<polygon fill="#8dd3c7" stroke="black" points="152.27,-122 149.27,-126 128.27,-126 125.27,-122 23.73,-122 23.73,-86 152.27,-86 152.27,-122"/>
<text text-anchor="middle" x="88" y="-99.8" font-family="Times,serif" font-size="14.00">AppRoutingModule</text>
</g>
<!-- AppRoutingModule&#45;&gt;AppModule -->
<g id="edge12" class="edge">
<title>AppRoutingModule&#45;&gt;AppModule</title>
<path fill="none" stroke="black" d="M88,-122.25C88,-145.02 88,-181 88,-181 88,-181 923.11,-181 923.11,-181"/>
<polygon fill="black" stroke="black" points="923.11,-184.5 933.11,-181 923.11,-177.5 923.11,-184.5"/>
</g>
</g>
</svg>
